<svg xmlns="http://www.w3.org/2000/svg" width="660.289" height="203.487" viewBox="0 0 660.289 203.487">
  <g id="brandmark-design" transform="translate(-535.856 -170.256)">
    <g id="g52" transform="translate(354 -112)">
      <path id="path4" d="M492.008,334.809l-.916-.928c-7.593-7.167-18.3-10.8-31.811-10.8a70.512,70.512,0,0,0-23.979,4.166,58.484,58.484,0,0,0-19.776,11.373l-1.942,1.719,8.377,12.069,2.462-2.24a45.781,45.781,0,0,1,15.07-9.027,53.047,53.047,0,0,1,18.98-3.416c9.252,0,16.313,2.283,20.95,6.749,4.742,4.737,7.146,11.513,7.146,20.141V370.1H453.674c-14.262,0-24.936,3-31.724,8.925-6.776,5.895-10.212,13.7-10.212,23.208,0,10,3.74,18.042,11.072,23.858,7.246,5.968,16.883,8.869,29.466,8.869,9.5,0,17.708-1.8,24.382-5.343A38.473,38.473,0,0,0,486.97,421.7v12.461h15.445V365.02c0-12.828-3.5-22.984-10.407-30.211Zm-5.439,48.928V399.83a34.982,34.982,0,0,1-12.5,15.581c-5.486,3.655-12.347,5.51-20.394,5.51-8.838,0-15.245-1.687-19.628-5.195-4.349-3.342-6.464-7.886-6.464-13.892,0-5.663,1.877-9.966,5.677-13.108,4.232-3.309,11.168-4.988,20.614-4.988h32.695Z" fill="#682c7a"/>
      <path id="polygon6" d="M610.391,323.885H597.768l-33.575,87.9-32.822-87.9h-15.86l41.827,110.283h13.217l33.416-85.519L637.2,434.168H650.61l41.827-110.283H676.994l-33.206,87.736Z" fill="#7e4796"/>
      <path id="path8" d="M777.254,336.072l.129-.13L775.2,333.88c-7.6-7.166-18.307-10.8-31.82-10.8a70.51,70.51,0,0,0-23.977,4.166,58.552,58.552,0,0,0-19.774,11.372l-1.946,1.718,8.377,12.069,2.462-2.236A45.849,45.849,0,0,1,723.6,341.14a53,53,0,0,1,18.98-3.416c9.246,0,16.306,2.283,20.943,6.749,4.744,4.738,7.147,11.514,7.147,20.141V370.1h-32.9c-14.26,0-24.936,3-31.725,8.925-6.776,5.9-10.211,13.7-10.211,23.208,0,10,3.74,18.042,11.071,23.858,7.246,5.968,16.883,8.869,29.466,8.869,9.5,0,17.708-1.8,24.382-5.343a38.522,38.522,0,0,0,10.319-7.924v12.468h15.438V365.02c0-12.1-3.113-21.819-9.26-28.948Zm-6.584,47.665v16.092a34.945,34.945,0,0,1-12.5,15.581h0c-5.477,3.657-12.339,5.51-20.392,5.51-8.838,0-15.245-1.687-19.626-5.193-4.351-3.347-6.466-7.893-6.466-13.894,0-5.663,1.879-9.968,5.686-13.11,4.224-3.309,11.158-4.987,20.606-4.987Z" fill="#9461b1"/>
      <g id="g14">
        <path id="path10" d="M823.1,441.244c0,6.028-1.369,10.627-4.072,13.668-2.6,2.934-6.578,4.42-11.819,4.42-6.652,0-11.416-1.586-14.992-4.993l-2.764-2.633L782.6,464.382l1.541,1.538a24.487,24.487,0,0,0,10.388,5.918,44.1,44.1,0,0,0,13.279,1.941c9.653,0,17.362-2.927,22.952-8.742,5.426-5.877,8.177-13.747,8.177-23.395V323.878H823.1Z" fill="#aa7ccc"/>
        <path id="path12" d="M823.161,301.25a10.424,10.424,0,0,0,7.86,3.049,10.922,10.922,0,0,0,7.872-3.256,10.644,10.644,0,0,0,3.251-7.866,10.515,10.515,0,0,0-3.251-7.659,10.9,10.9,0,0,0-7.872-3.262,10.593,10.593,0,0,0-7.859,3.256,10.88,10.88,0,0,0-3.261,7.866,10.646,10.646,0,0,0,3.254,7.867Z" fill="#aa7ccc"/>
      </g>
      <path id="path16" d="M402.442,339.023c-.56-.486-14.074-11.847-43.036-10.041-19.889,1.242-40.446-7.42-50.917-12.7a12.582,12.582,0,0,0-11.779.235L183.562,368.536a2.779,2.779,0,0,0-1.551,3.41,2.644,2.644,0,0,0,3.584,1.477l97.015-44.6a3.682,3.682,0,0,1,5.142,4.1l-.035.166a3.7,3.7,0,0,1-2.054,2.594L194.6,378.323a2.644,2.644,0,1,0,2.242,4.79l79.643-37.29a4.274,4.274,0,0,1,5.625,5.8l-.067.132a4.234,4.234,0,0,1-1.947,1.894c-10.172,4.9-77.3,37.243-77.3,37.243a2.645,2.645,0,0,0,2.3,4.766l54.2-26.13a5.852,5.852,0,0,1,7.7,8.036l-.141.263a5.789,5.789,0,0,1-2.6,2.492c-9.03,4.346-50.148,24.156-50.148,24.156a2.645,2.645,0,0,0,2.3,4.766l36.136-17.423a4.912,4.912,0,0,1,6.923,5.518l-.026.112q-.153.673-.33,1.332a4.927,4.927,0,0,1-2.611,3.178l-35.1,16.921a2.645,2.645,0,0,0,2.3,4.766l21.785-10.5a2.976,2.976,0,0,1,3.6,4.555,74.8,74.8,0,0,1-21.164,17.349,2.645,2.645,0,0,0,2.368,4.73c1.074-.537,24.73-12.611,32.824-35.989,0,0,0-.008.005-.013a48.971,48.971,0,0,0,1.481-5.156c2.865-12.61,8.9-22.307,14.732-31.686,5.861-9.419,11.4-18.316,12.931-29.062.826-5.792,2.245-10.489,4.215-13.957a7.238,7.238,0,0,1,2.751-2.725l1-.46a7.276,7.276,0,0,1,5.891.279c10.949,5.517,32.467,14.566,53.627,13.252,26.62-1.663,39.134,8.669,39.248,8.765a2.645,2.645,0,1,0,3.457-4Z" fill="#dbc978"/>
      <g id="g50">
        <path id="path18" d="M347.2,472.673v-6.538H335.057v6.538Zm-3.265-9.8v-6.54h-8.873v9.341l2.8-2.8Zm7.005,9.8a3.2,3.2,0,0,1-.984,2.335,3.1,3.1,0,0,1-2.289.932H331.327V459.6l3.265-3.267h-3.265v-3.265H344.4a3.336,3.336,0,0,1,3.267,3.265v6.54h.1a2.872,2.872,0,0,1,2.237.976,3.113,3.113,0,0,1,.94,2.289v6.538Z" fill="#f5f5f5"/>
        <path id="path20" d="M378.292,466.135h-3.273V462.4h-6.538v13.544h-3.267V459.6h3.267v2.335l2.333-2.335h4.205a3.36,3.36,0,0,1,3.273,3.273v3.265Z" fill="#f5f5f5"/>
        <path id="path22" d="M406.829,475.94h-3.273v-2.381l-2.8,2.381H393.75a3.183,3.183,0,0,1-3.265-3.267v-3.265a3.1,3.1,0,0,1,.93-2.289,3.2,3.2,0,0,1,2.335-.984h9.339l-2.8,2.756H393.75v4.249h9.806V462.4H390.485l2.8-2.808h10.271a3.36,3.36,0,0,1,3.273,3.273V475.94Z" fill="#f5f5f5"/>
        <path id="path24" d="M437.414,475.94h-3.265V462.4h-9.813V475.94H421.07V459.6h3.265v2.335l2.335-2.335h7.478a3.36,3.36,0,0,1,3.265,3.273Z" fill="#f5f5f5"/>
        <path id="path26" d="M464.771,473.14V460.069l-2.335,2.335h-7.469V473.14Zm3.265,2.8h-3.265v-2.335l-2.335,2.335h-7.469a3.2,3.2,0,0,1-3.273-3.267v-9.8a3.127,3.127,0,0,1,.938-2.291,3.188,3.188,0,0,1,2.335-.982h9.8v-7.47l3.265-3.265Z" fill="#f5f5f5"/>
        <path id="path28" d="M486.048,475.933h-3.275V461.924l3.275-3.267v17.276Zm0-19.144h-3.275v-3.74h3.275Z" fill="#f5f5f5"/>
        <path id="path30" d="M516.709,475.94h-3.267V462.4H503.63V475.94h-3.265V459.6h3.265v2.335l2.335-2.335h7.476a3.36,3.36,0,0,1,3.267,3.273V475.94Z" fill="#f5f5f5"/>
        <path id="path32" d="M549.2,459.6l-2.808,2.8H534.719V473.14h9.811V463.8H547.8v18.679a3.361,3.361,0,0,1-3.265,3.265H530.987l2.8-2.8h10.743v-9.385l-2.808,2.381h-7a3.208,3.208,0,0,1-3.265-3.275v-9.8a3.1,3.1,0,0,1,.938-2.283,3.155,3.155,0,0,1,2.327-.982Z" fill="#f5f5f5"/>
        <path id="path34" d="M585.177,473.14V462.4h-9.806V473.14Zm3.273-.467a3.2,3.2,0,0,1-.984,2.335,3.1,3.1,0,0,1-2.289.932h-9.806v-2.756l-3.265,3.221v-24.28l3.265-3.265v13.071l2.335-2.335h7.47a3.36,3.36,0,0,1,3.273,3.273v9.8Z" fill="#f5f5f5"/>
        <path id="path36" d="M619.072,475.94H615.8V473.6l-2.335,2.335H606a3.186,3.186,0,0,1-3.267-3.267V459.6H606V473.14h9.8V459.6h3.273V475.94Z" fill="#f5f5f5"/>
        <path id="path38" d="M636.617,475.933h-3.265V461.924l3.265-3.267v17.276Zm0-19.144h-3.265v-3.74h3.265Z" fill="#f5f5f5"/>
        <path id="polygon40" d="M654.665,448.861v27.08h-3.273V452.126Z" fill="#f5f5f5"/>
        <path id="path42" d="M682.5,473.14V460.069l-2.335,2.335h-7.476V473.14Zm3.267,2.8H682.5v-2.335l-2.335,2.335h-7.476a3.183,3.183,0,0,1-3.265-3.267v-9.8a3.15,3.15,0,0,1,.93-2.291,3.213,3.213,0,0,1,2.335-.982H682.5v-7.47l3.267-3.265Z" fill="#f5f5f5"/>
        <path id="path44" d="M716.857,475.94H703.78a3.186,3.186,0,0,1-3.267-3.267v-9.8a3.122,3.122,0,0,1,.932-2.291,3.2,3.2,0,0,1,2.335-.982h9.8a3.356,3.356,0,0,1,3.273,3.273v3.265l-3.273,3.273h-9.339l2.8-2.808h6.538v-4.2h-9.8V473.14h13.077Z" fill="#f5f5f5"/>
        <path id="path46" d="M742.841,466.135h-3.265V462.4h-6.54v13.544H729.77V459.6h3.265v2.335l2.335-2.335h4.205a3.346,3.346,0,0,1,3.265,3.273Z" fill="#f5f5f5"/>
        <path id="path48" d="M769.05,459.6l-2.846,2.8h-7.889v3.738h6.538a3.35,3.35,0,0,1,3.265,3.265v3.265a3.183,3.183,0,0,1-.984,2.335,3.1,3.1,0,0,1-2.281.94h-9.813v-2.8h9.813v-4.205h-6.538a3.208,3.208,0,0,1-3.275-3.273v-2.8a3.1,3.1,0,0,1,.94-2.283,3.172,3.172,0,0,1,2.335-.982H769.05Z" fill="#f5f5f5"/>
      </g>
    </g>
  </g>
</svg>
