<?xml version="1.0" encoding="UTF-8" standalone="no"?>
<svg
   xmlns:dc="http://purl.org/dc/elements/1.1/"
   xmlns:cc="http://creativecommons.org/ns#"
   xmlns:rdf="http://www.w3.org/1999/02/22-rdf-syntax-ns#"
   xmlns:svg="http://www.w3.org/2000/svg"
   xmlns="http://www.w3.org/2000/svg"
   id="svg6"
   xml:space="preserve"
   enable-background="new 0 0 200 200"
   viewBox="0 0 200 200"
   y="0px"
   x="0px"
   version="1.1"><metadata
     id="metadata12"><rdf:RDF><cc:Work
         rdf:about=""><dc:format>image/svg+xml</dc:format><dc:type
           rdf:resource="http://purl.org/dc/dcmitype/StillImage" /></cc:Work></rdf:RDF></metadata><defs
     id="defs10" /><rect
     id="rect2"
     fill="#3a1b52"
     height="200"
     width="200" /><path
     id="path4"
     fill="#dbc978"
     d="m174.56491 76.47193c-0.64598 0.74742-1.77819 0.83196-2.52678 0.18482-0.07696-0.0653-8.55165-7.06205-26.57846-5.93567-14.32933 0.88968-28.90119-5.23838-36.31596-8.97434-1.29487-0.65166-2.73317-0.66748-3.98957-0.18882l-0.67746 0.3114c-0.75151 0.42575-1.40652 1.04185-1.86273 1.84509-1.33394 2.34896-2.29474 5.52931-2.85444 9.45183-1.0401 7.27719-4.78771 13.30206-8.75688 19.68082-3.95051 6.35136-8.03627 12.91843-9.97654 21.45784-0.27358 1.20349-0.61362 2.36551-1.00308 3.4916-0.00087 0.00284-0.00204 0.00561-0.00306 0.00845-5.48121 15.83161-21.50113 24.00802-22.22815 24.37153-0.25653 0.12826-0.53054 0.1889-0.79873 0.1889-0.65647 0-1.28846-0.36263-1.60329-0.98879-0.44192-0.88385-0.08512-1.96009 0.79873-2.40319 0.11832-0.05957 8.02323-4.10833 14.33229-11.74864 1.36807-1.65675-0.5047-4.01788-2.44012-3.08483l-14.75244 7.11202c-0.2507 0.1201-0.51538 0.17724-0.77658 0.17724-0.6658 0-1.30595-0.37313-1.61495-1.01328-0.4291-0.89085-0.0548-1.96126 0.83604-2.39152l23.76857-11.4586c0.877-0.42279 1.51632-1.21156 1.76788-2.15208 0.07961-0.29764 0.15444-0.59804 0.22345-0.90171l0.01729-0.07575c0.62022-2.71774-2.1769-4.94724-4.68789-3.73658l-24.47078 11.79845c-0.2507 0.1201-0.51538 0.17724-0.77658 0.17724-0.6658 0-1.30595-0.37313-1.61495-1.01328-0.4291-0.89085-0.0548-1.96126 0.83604-2.39152 0 0 27.84484-13.41514 33.96012-16.35854 0.75338-0.36262 1.36369-0.95093 1.75877-1.68781l0.09545-0.17803c1.81289-3.38122-1.7574-7.10813-5.21329-5.44198l-36.70289 17.69513c-0.2507 0.1201-0.51538 0.17724-0.77658 0.17724-0.6658 0-1.30595-0.37313-1.61495-1.01328-0.4291-0.89085-0.0548-1.96126 0.83604-2.39152 0 0 45.45882-21.90533 52.34714-25.22097 0.56793-0.27337 1.03325-0.72045 1.31852-1.28249l0.04512-0.08908c1.24314-2.45434-1.31735-5.09531-3.80898-3.9287l-53.93393 25.25255c-0.24487 0.11485-0.50372 0.16966-0.75792 0.16966-0.67396 0-1.31878-0.38187-1.62311-1.03194-0.41977-0.89609-0.03381-1.96243 0.86286-2.38161l61.66926-28.8744c0.71406-0.33433 1.2292-0.98516 1.39063-1.75691l0.02351-0.11239c0.41914-2.00384-1.62177-3.6309-3.48184-2.77582l-65.69756 30.20159c-0.24253 0.11136-0.49673 0.16441-0.74742 0.16441-0.71937 0-1.40467-0.435-1.67949-1.16472-0.33918-0.90062 0.17577-1.90749 1.05017-2.30946l76.6232-35.2242c2.38978-1.32286 5.36315-1.47539 7.97651-0.15894 7.09062 3.57271 21.01184 9.439 34.48063 8.59771 19.6126-1.22316 28.76476 6.47088 29.14372 6.7997 0.74859 0.64656 0.83138 1.77761 0.1854 2.5262z" /></svg>